<svg width="34" height="33" viewBox="0 0 34 33" fill="none" xmlns="http://www.w3.org/2000/svg">
<path d="M32.9366 14.7253H3.6431C3.79584 13.5949 4.09727 12.4949 4.54472 11.439C5.19872 9.89567 6.13598 8.50844 7.32994 7.31665C7.5392 7.10777 7.7545 6.90662 7.97553 6.7142C8.08083 6.82603 8.18781 6.93617 8.29681 7.04498C9.62265 8.3684 11.1669 9.4074 12.887 10.1338C14.6686 10.8856 16.5603 11.2675 18.5092 11.2675H32.1857C31.7696 10.0216 31.2084 8.8419 30.5221 7.74816C27.603 3.09483 22.4211 0 16.5149 0C13.7404 0 11.1258 0.682704 8.83071 1.88927C7.77738 2.44303 6.79133 3.10692 5.88804 3.86585C2.71054 6.53454 0.555095 10.3779 0.0931886 14.7253C0.0316236 15.3036 0 15.8903 0 16.4849C0 17.0796 0.0316236 17.6663 0.0931886 18.2446H29.3864C29.2336 19.375 28.9323 20.475 28.4848 21.5309C27.8307 23.0742 26.8935 24.4615 25.6996 25.653C25.4902 25.8618 25.2749 26.0629 25.0539 26.2557C24.9487 26.1439 24.8416 26.0334 24.7326 25.9245C23.4068 24.6012 21.8626 23.5621 20.1425 22.8358C18.3609 22.084 16.4695 21.7021 14.5202 21.7021H0.84408C1.26023 22.948 1.82139 24.1277 2.50768 25.2214C5.42681 29.8751 10.6087 32.9699 16.5149 32.9699C19.289 32.9699 21.9037 32.2872 24.1988 31.0806C25.2521 30.5272 26.2385 29.863 27.1417 29.1044C30.3193 26.4351 32.4747 22.592 32.9366 18.2446C32.9982 17.6663 33.0298 17.0796 33.0298 16.4849C33.0298 15.8903 32.9982 15.3036 32.9366 14.7253ZM11.4598 4.5368C13.0588 3.86183 14.7598 3.5193 16.5149 3.5193C18.27 3.5193 19.9706 3.86149 21.5696 4.5368C23.1158 5.18962 24.5055 6.12519 25.6996 7.31665C25.8409 7.45802 25.9788 7.60175 26.1129 7.74849H18.5092C15.5988 7.74849 12.9506 6.60574 10.9912 4.74568C11.146 4.6728 11.3021 4.6033 11.4598 4.5368ZM21.5696 28.4331C19.9706 29.1081 18.27 29.4506 16.5149 29.4506C14.7598 29.4506 13.0588 29.1081 11.4598 28.4331C9.91365 27.7802 8.5239 26.8447 7.32994 25.653C7.18864 25.5119 7.05071 25.3682 6.91681 25.2214H14.5202C17.4307 25.2214 20.0789 26.3642 22.0383 28.2242C21.8835 28.2971 21.7274 28.3666 21.5696 28.4331Z" fill="#F1554C"/>
</svg>
