<svg width="16" height="23" viewBox="0 0 16 23" fill="none" xmlns="http://www.w3.org/2000/svg">
<path d="M12.7286 0.0983794C12.8709 0.179936 12.9811 0.306791 13.041 0.458219C13.101 0.609648 13.1072 0.776699 13.0587 0.932082L10.4392 9.34385H15.2725C15.4145 9.3438 15.5534 9.38485 15.6721 9.46194C15.7908 9.53903 15.8841 9.64878 15.9404 9.77765C15.9967 9.90653 16.0136 10.0489 15.989 10.1871C15.9644 10.3254 15.8993 10.4535 15.8019 10.5556L4.16596 22.7737C4.05337 22.892 3.90355 22.9691 3.74092 22.9925C3.57828 23.0159 3.41243 22.9842 3.27038 22.9025C3.12834 22.8208 3.01848 22.6939 2.95871 22.5426C2.89895 22.3914 2.8928 22.2245 2.94127 22.0693L5.56082 13.6561H0.727536C0.585498 13.6562 0.446552 13.6151 0.32785 13.538C0.209149 13.4609 0.115889 13.3512 0.0595826 13.2223C0.00327636 13.0934 -0.0136111 12.9511 0.0110049 12.8128C0.0356209 12.6746 0.100663 12.5465 0.198101 12.4444L11.834 0.22631C11.9465 0.108153 12.0961 0.0310631 12.2585 0.00757561C12.4209 -0.0159119 12.5866 0.0155839 12.7286 0.096942V0.0983794Z" fill="white"/>
</svg>
